<svg xmlns="http://www.w3.org/2000/svg" width="256" height="256" viewBox="0 0 100 100"><rect width="100" height="100" rx="50" fill="#92b7dc"></rect><path fill="#eaf4fb" d="M53.36 86.58Q38.29 86.58 29.93 77.26Q21.57 67.95 21.57 50.41L21.57 50.41Q21.57 33.15 30.13 23.28Q38.70 13.42 54.32 13.42L54.32 13.42Q65.41 13.42 71.51 18.22Q77.61 23.01 77.61 30.82L77.61 30.82Q77.61 35.61 75.07 38.49Q72.54 41.37 68.56 41.37L68.56 41.37Q64.04 41.37 62.12 38.77L62.12 38.77Q66.65 36.98 66.65 30.00L66.65 30.00Q66.65 24.11 62.88 21.16Q59.11 18.22 53.36 18.22L53.36 18.22Q44.18 18.22 38.70 26.16Q33.22 34.11 33.22 48.77L33.22 48.77Q33.22 64.52 39.52 71.78Q45.82 79.04 56.23 79.04L56.23 79.04Q63.77 79.04 69.25 75.34Q74.73 71.65 76.37 64.66L76.37 64.66Q78.43 65.34 78.43 68.08L78.43 68.08Q78.43 69.86 77.74 71.78L77.74 71.78Q75.55 78.91 69.04 82.74Q62.54 86.58 53.36 86.58L53.36 86.58Z"></path></svg>